<svg xmlns="http://www.w3.org/2000/svg" width="19.306" height="21.116" viewBox="0 0 19.306 21.116">
  <g id="button_refresh__orange" transform="translate(-419.079 -194)">
    <path id="Path_407" data-name="Path 407" d="M5.741,4.187A8.418,8.418,0,0,1,16.684,3.9l-2.505.095A.582.582,0,0,0,14.2,5.157h.022l3.846-.142a.581.581,0,0,0,.561-.582V4.364h0l-.142-3.8A.583.583,0,0,0,17.322.6l.091,2.384A9.574,9.574,0,0,0,4.96,3.325a9.577,9.577,0,0,0-2.88,9.361.58.58,0,0,0,.565.444.5.5,0,0,0,.138-.017.583.583,0,0,0,.427-.7A8.413,8.413,0,0,1,5.741,4.187Z" transform="translate(417.269 194)" fill="#f67b03"/>
    <path id="Path_408" data-name="Path 408" d="M23.273,16.416a.581.581,0,1,0-1.13.276A8.411,8.411,0,0,1,8.6,25.148l2.535-.229a.582.582,0,0,0-.108-1.16L7.194,24.1a.581.581,0,0,0-.526.634l.345,3.833a.581.581,0,0,0,.578.53.21.21,0,0,0,.052,0,.581.581,0,0,0,.526-.634l-.207-2.333a9.51,9.51,0,0,0,5.532,2.109c.164.009.328.013.487.013a9.575,9.575,0,0,0,9.292-11.836Z" transform="translate(414.841 186.014)" fill="#f67b03"/>
  </g>
</svg>
