<svg xmlns="http://www.w3.org/2000/svg" width="29.61" height="28.156" viewBox="0 0 29.61 28.156">
  <g id="button_create_schedule_blue" transform="translate(-1086.961 -1019.366)">
    <g id="Group_24" data-name="Group 24" transform="translate(1086.961 1019.366)">
      <path id="Path_339" data-name="Path 339" d="M10.762,14.1a.477.477,0,0,1-.49.467H8.431a.477.477,0,0,1-.49-.467V12.351a.477.477,0,0,1,.49-.467h1.84a.477.477,0,0,1,.49.467Zm3.843-1.747a.477.477,0,0,0-.49-.467h-1.84a.477.477,0,0,0-.49.467v1.753a.477.477,0,0,0,.49.467h1.84a.477.477,0,0,0,.49-.467Zm3.843,0a.477.477,0,0,0-.49-.467h-1.84a.477.477,0,0,0-.49.467v1.753a.477.477,0,0,0,.49.467h1.84a.477.477,0,0,0,.49-.467Zm-7.687,3.563a.477.477,0,0,0-.49-.467H8.431a.477.477,0,0,0-.49.467v1.753a.477.477,0,0,0,.49.467h1.84a.477.477,0,0,0,.49-.467Zm3.843,0a.477.477,0,0,0-.49-.467h-1.84a.477.477,0,0,0-.49.467v1.753a.477.477,0,0,0,.49.467h1.84a.477.477,0,0,0,.49-.467Zm3.353-.467h-1.84a.477.477,0,0,0-.49.467v1.753a.477.477,0,0,0,.49.467h1.84a.477.477,0,0,0,.49-.467V15.919A.477.477,0,0,0,17.958,15.452ZM6.422,19.015H4.588a.477.477,0,0,0-.49.467v1.753a.477.477,0,0,0,.49.467h1.84a.477.477,0,0,0,.49-.467V19.482A.482.482,0,0,0,6.422,19.015Zm.5-3.1a.477.477,0,0,0-.49-.467H4.588a.477.477,0,0,0-.49.467v1.753a.477.477,0,0,0,.49.467h1.84a.477.477,0,0,0,.49-.467Zm7.2,3.1h-1.84a.477.477,0,0,0-.49.467v1.753a.477.477,0,0,0,.49.467h1.84a.477.477,0,0,0,.49-.467V19.482A.477.477,0,0,0,14.115,19.015Zm-3.843,0H8.431a.477.477,0,0,0-.49.467v1.753a.477.477,0,0,0,.49.467h1.84a.477.477,0,0,0,.49-.467V19.482A.477.477,0,0,0,10.271,19.015ZM21.8,14.576a.477.477,0,0,0,.49-.467V12.357a.477.477,0,0,0-.49-.467h-1.84a.477.477,0,0,0-.49.467v1.753a.477.477,0,0,0,.49.467ZM2.887,25.506H16.851a6.857,6.857,0,0,1-.357-2.121H2.887a.64.64,0,0,1-.654-.623V10.235H24.126v5.828a7.865,7.865,0,0,1,2.227.329V5.848A2.824,2.824,0,0,0,23.466,3.1H20.234V1.4a1.03,1.03,0,0,0-1.053-1h-1.64a1.03,1.03,0,0,0-1.053,1V3.1H9.866V1.4A1.03,1.03,0,0,0,8.813.4H7.172a1.03,1.03,0,0,0-1.053,1V3.1H2.887A2.824,2.824,0,0,0,0,5.854V22.762A2.823,2.823,0,0,0,2.887,25.506ZM29.61,23.3A5.389,5.389,0,0,1,24.1,28.556,5.389,5.389,0,0,1,18.582,23.3,5.389,5.389,0,0,1,24.1,18.052,5.389,5.389,0,0,1,29.61,23.3Zm-2.73-1.361a.6.6,0,0,0-.194-.444.685.685,0,0,0-.938,0l-2.4,2.283-.92-.876a.685.685,0,0,0-.938,0,.6.6,0,0,0-.194.444.6.6,0,0,0,.194.444l1.386,1.32a.685.685,0,0,0,.938,0l2.863-2.727A.58.58,0,0,0,26.88,21.944Z" transform="translate(0 -0.4)" fill="#252e4a"/>
    </g>
  </g>
</svg>
