<svg xmlns="http://www.w3.org/2000/svg" width="27.287" height="27.287" viewBox="0 0 27.287 27.287">
  <g id="button_insert_template_blue" transform="translate(-1134.713 -1019.364)">
    <path id="ic_library_books_24px" d="M4.729,7.457H2v19.1a2.737,2.737,0,0,0,2.729,2.729h19.1V26.558H4.729ZM26.558,2H10.186A2.737,2.737,0,0,0,7.457,4.729V21.1a2.737,2.737,0,0,0,2.729,2.729H26.558A2.737,2.737,0,0,0,29.287,21.1V4.729A2.737,2.737,0,0,0,26.558,2ZM25.194,14.279H11.55V11.55H25.194Zm-5.457,5.457H11.55V17.008h8.186ZM25.194,8.822H11.55V6.093H25.194Z" transform="translate(1132.713 1017.364)" fill="#252e4a"/>
  </g>
</svg>
