<svg xmlns="http://www.w3.org/2000/svg" xmlns:xlink="http://www.w3.org/1999/xlink" width="50" height="50" viewBox="0 0 50 50">
  <defs>
    <clipPath id="clip-path">
      <rect id="Rectangle_164" data-name="Rectangle 164" width="50" height="50" transform="translate(692 464)" fill="#fe8000" stroke="#707070" stroke-width="1"/>
    </clipPath>
  </defs>
  <g id="button_add_contactat__orange" transform="translate(-6482 2994)">
    <g id="Mask_Group_24" data-name="Mask Group 24" transform="translate(5790 -3458)" clip-path="url(#clip-path)">
      <g id="add-friend" transform="translate(692.009 464)">
        <path id="Path_450" data-name="Path 450" d="M15.51,61.561a7.727,7.727,0,0,0-7.717-7.719,8.063,8.063,0,0,0-5.766,2.594A7.715,7.715,0,0,0,7.794,69.281a8.008,8.008,0,0,0,5.223-2.043A7.743,7.743,0,0,0,15.51,61.561Zm-4.885,1.674H9.363V64.5a1.569,1.569,0,1,1-3.138,0V63.235H4.962a1.569,1.569,0,1,1,0-3.138H6.225V58.834a1.569,1.569,0,1,1,3.138,0V60.1h1.262a1.569,1.569,0,0,1,0,3.138Zm0,0" transform="translate(-0.076 -19.328)" fill="#fe8000"/>
        <path id="Path_451" data-name="Path 451" d="M37.4,34.018a2.969,2.969,0,1,0-2.968-2.969A2.972,2.972,0,0,0,37.4,34.018Zm0,0" transform="translate(-12.409 -10.08)" fill="#fe8000"/>
        <path id="Path_452" data-name="Path 452" d="M35.914,41.921a5.821,5.821,0,0,0-5.622,4.347H41.536a5.82,5.82,0,0,0-5.622-4.347Zm0,0" transform="translate(-10.923 -15.049)" fill="#fe8000"/>
        <path id="Path_453" data-name="Path 453" d="M42.739,7.323A24.991,24.991,0,0,0,.076,25a25.145,25.145,0,0,0,1.755,9.213,9.238,9.238,0,0,1,6.8-2.531c5.124.08,9.9,5.067,9.84,10.038A10.051,10.051,0,0,1,16.248,48.4,25.117,25.117,0,0,0,25.067,50,25,25,0,0,0,42.739,7.323ZM32.342,34.15H17.793a1.465,1.465,0,0,1-1.465-1.465,8.747,8.747,0,0,1,4.485-7.634,5.9,5.9,0,1,1,8.508,0,8.747,8.747,0,0,1,4.485,7.634,1.465,1.465,0,0,1-1.465,1.465Zm0,0" transform="translate(-0.076)" fill="#fe8000"/>
      </g>
    </g>
  </g>
</svg>
