<svg xmlns="http://www.w3.org/2000/svg" width="25.523" height="25.524" viewBox="0 0 25.523 25.524">
  <g id="button_add_emoji_orange" transform="translate(-6449.763 -71.127)">
    <path id="ic_mood_24px" d="M14.749,2A12.762,12.762,0,1,0,27.524,14.762,12.756,12.756,0,0,0,14.749,2Zm.013,22.971A10.209,10.209,0,1,1,24.971,14.762,10.207,10.207,0,0,1,14.762,24.971Zm4.467-11.486a1.914,1.914,0,1,0-1.914-1.914A1.912,1.912,0,0,0,19.228,13.486Zm-8.933,0a1.914,1.914,0,1,0-1.914-1.914A1.912,1.912,0,0,0,10.3,13.486Zm4.467,8.3a7.014,7.014,0,0,0,6.521-4.467H8.241A7.014,7.014,0,0,0,14.762,21.781Z" transform="translate(6447.763 69.128)" fill="#ff7f00"/>
  </g>
</svg>
