<svg xmlns="http://www.w3.org/2000/svg" width="27.287" height="27.287" viewBox="0 0 27.287 27.287">
  <g id="button_add_emoji_blue" transform="translate(-986 -1019.364)">
    <path id="ic_mood_24px" d="M15.63,2A13.643,13.643,0,1,0,29.287,15.643,13.637,13.637,0,0,0,15.63,2Zm.014,24.558A10.915,10.915,0,1,1,26.558,15.643,10.912,10.912,0,0,1,15.643,26.558Zm4.775-12.279a2.047,2.047,0,1,0-2.047-2.047A2.044,2.044,0,0,0,20.419,14.279Zm-9.55,0a2.047,2.047,0,1,0-2.047-2.047A2.044,2.044,0,0,0,10.868,14.279Zm4.775,8.868a7.5,7.5,0,0,0,6.972-4.775H8.672A7.5,7.5,0,0,0,15.643,23.147Z" transform="translate(984 1017.364)" fill="#252e4a"/>
  </g>
</svg>
