<svg xmlns="http://www.w3.org/2000/svg" width="35.253" height="35.253" viewBox="0 0 35.253 35.253">
  <g id="button_menu_settings__orange" data-name="button_menu_settings_ orange" transform="translate(-1781.927 -10.373)">
    <g id="ic_account_circle_24px" transform="translate(1781.927 10.373)">
      <path id="ic_account_circle_24px-2" data-name="ic_account_circle_24px" d="M19.626,2A17.626,17.626,0,1,0,37.253,19.626,17.633,17.633,0,0,0,19.626,2Zm0,30.318A12.692,12.692,0,0,1,9.051,26.642c.053-3.508,7.051-5.429,10.576-5.429,3.508,0,10.523,1.921,10.576,5.429A12.692,12.692,0,0,1,19.626,32.318Z" transform="translate(-2 -2)" fill="#fff"/>
    </g>
    <path id="ic_settings_24px" d="M9.933,6.356a4.511,4.511,0,0,0,.041-.567,4.511,4.511,0,0,0-.041-.567l1.221-.955a.292.292,0,0,0,.069-.37l-1.158-2a.291.291,0,0,0-.353-.127l-1.441.579a4.229,4.229,0,0,0-.978-.567L7.073.243A.282.282,0,0,0,6.789,0H4.474A.282.282,0,0,0,4.19.243L3.97,1.777a4.447,4.447,0,0,0-.978.567L1.551,1.765a.282.282,0,0,0-.353.127L.04,3.9a.285.285,0,0,0,.069.37l1.221.955a4.59,4.59,0,0,0-.041.567,4.59,4.59,0,0,0,.041.567L.11,7.311a.292.292,0,0,0-.069.37l1.158,2a.291.291,0,0,0,.353.127l1.441-.579A4.229,4.229,0,0,0,3.97,9.8l.22,1.534a.282.282,0,0,0,.284.243H6.789a.282.282,0,0,0,.284-.243L7.293,9.8a4.447,4.447,0,0,0,.978-.567l1.441.579a.282.282,0,0,0,.353-.127l1.158-2a.292.292,0,0,0-.069-.37Zm-4.3,1.459A2.026,2.026,0,1,1,7.658,5.788,2.028,2.028,0,0,1,5.632,7.814Z" transform="matrix(0.875, 0.485, -0.485, 0.875, 1798.258, 14.378)" fill="#ff7f00"/>
  </g>
</svg>
