<svg xmlns="http://www.w3.org/2000/svg" width="31.243" height="32.272" viewBox="0 0 31.243 32.272">
  <g id="button_search_message_orange" transform="translate(-7531 925.967)">
    <path id="ic_search_24px" d="M25.329,23.3H23.918l-.5-.5a12.173,12.173,0,0,0,2.8-7.805A11.807,11.807,0,0,0,14.611,3,11.807,11.807,0,0,0,3,14.994,11.807,11.807,0,0,0,14.611,26.987a11.347,11.347,0,0,0,7.556-2.9l.482.517v1.458l8.932,9.207,2.662-2.749Zm-10.718,0a8.163,8.163,0,0,1-8.039-8.3,8.163,8.163,0,0,1,8.039-8.3,8.163,8.163,0,0,1,8.039,8.3A8.163,8.163,0,0,1,14.611,23.3Z" transform="translate(7528 -928.967)" fill="#fc8300"/>
  </g>
</svg>
