<svg xmlns="http://www.w3.org/2000/svg" width="29.628" height="32.519" viewBox="0 0 29.628 32.519">
  <g id="button_add_labels_orange" transform="translate(-7436.771 925.214)">
    <g id="tag-black-shape" transform="translate(7436.771 -925.214)">
      <path id="Path_402" data-name="Path 402" d="M28.907,15.743,14.924,1.78A6.057,6.057,0,0,0,12.929.518,6.042,6.042,0,0,0,10.641,0H2.505A2.407,2.407,0,0,0,.745.743,2.406,2.406,0,0,0,0,2.5v8.135A6.038,6.038,0,0,0,.52,12.927,5.828,5.828,0,0,0,1.782,14.9l13.983,14a2.4,2.4,0,0,0,1.76.724A2.5,2.5,0,0,0,19.3,28.9l9.6-9.622a2.4,2.4,0,0,0,.723-1.76A2.506,2.506,0,0,0,28.907,15.743ZM8.03,8.028a2.413,2.413,0,0,1-1.77.734,2.5,2.5,0,0,1-2.5-2.5,2.5,2.5,0,0,1,2.5-2.5,2.5,2.5,0,0,1,2.5,2.5A2.411,2.411,0,0,1,8.03,8.028Z" transform="translate(-0.002 0)" fill="#fc8300"/>
    </g>
    <g id="Path_435" data-name="Path 435" transform="translate(7439.206 -905.021)" fill="#fc8300">
      <path d="M 6.163032531738281 10.82606220245361 C 3.591832637786865 10.82606220245361 1.500002503395081 8.734232902526855 1.500002503395081 6.163032531738281 C 1.500002503395081 3.591832637786865 3.591832637786865 1.500002503395081 6.163032531738281 1.500002503395081 C 8.734232902526855 1.500002503395081 10.82606220245361 3.591832637786865 10.82606220245361 6.163032531738281 C 10.82606220245361 8.734232902526855 8.734232902526855 10.82606220245361 6.163032531738281 10.82606220245361 Z" stroke="none"/>
      <path d="M 6.163032531738281 3.000002861022949 C 4.418932437896729 3.000002861022949 3.000002861022949 4.418932437896729 3.000002861022949 6.163032531738281 C 3.000002861022949 7.907132625579834 4.418932437896729 9.326062202453613 6.163032531738281 9.326062202453613 C 7.907132625579834 9.326062202453613 9.326062202453613 7.907132625579834 9.326062202453613 6.163032531738281 C 9.326062202453613 4.418932437896729 7.907132625579834 3.000002861022949 6.163032531738281 3.000002861022949 M 6.163032531738281 2.86102294921875e-06 C 9.566781997680664 2.86102294921875e-06 12.32606220245361 2.759282112121582 12.32606220245361 6.163032531738281 C 12.32606220245361 9.566781997680664 9.566781997680664 12.32606220245361 6.163032531738281 12.32606220245361 C 2.759282112121582 12.32606220245361 2.86102294921875e-06 9.566781997680664 2.86102294921875e-06 6.163032531738281 C 2.86102294921875e-06 2.759282112121582 2.759282112121582 2.86102294921875e-06 6.163032531738281 2.86102294921875e-06 Z" stroke="none" fill="#fc8300"/>
    </g>
    <g id="Path_403" data-name="Path 403" transform="translate(7444.396 -901.777)" fill="#fc8300">
      <path d="M 1.013119339942932 4.727159976959229 C 1.008591175079346 4.727159976959229 1.004215717315674 4.727050304412842 0.9999993443489075 4.726847648620605 L 0.9999993443489075 1.000312447547913 C 1.004215717315674 1.000109910964966 1.008591175079346 1 1.013119339942932 1 C 1.017647504806519 1 1.02202296257019 1.000109910964966 1.026239395141602 1.000312447547913 L 1.026239395141602 4.726847648620605 C 1.02202296257019 4.727050304412842 1.017647504806519 4.727159976959229 1.013119339942932 4.727159976959229 Z" stroke="none"/>
      <path d="M 1.013119339942932 0 C 1.572649359703064 0 2.026239395141602 0.3663101196289062 2.026239395141602 0.8181700706481934 L 2.026239395141602 4.908989906311035 C 2.026239395141602 5.360859870910645 1.572649359703064 5.727159976959229 1.013119339942932 5.727159976959229 C 0.4535893201828003 5.727159976959229 -7.152557373046875e-07 5.360859870910645 -7.152557373046875e-07 4.908989906311035 L -7.152557373046875e-07 0.8181700706481934 C -7.152557373046875e-07 0.3663101196289062 0.4535893201828003 0 1.013119339942932 0 Z" stroke="none" fill="#fff"/>
    </g>
    <g id="Path_404" data-name="Path 404" transform="translate(7442.546 -897.9) rotate(-90)" fill="#fc8300">
      <path d="M 1.013119339942932 4.727159976959229 C 1.008591175079346 4.727159976959229 1.004215717315674 4.727050304412842 0.9999993443489075 4.726847648620605 L 0.9999993443489075 1.000312447547913 C 1.004215717315674 1.000109910964966 1.008591175079346 1 1.013119339942932 1 C 1.017647504806519 1 1.02202296257019 1.000109910964966 1.026239395141602 1.000312447547913 L 1.026239395141602 4.726847648620605 C 1.02202296257019 4.727050304412842 1.017647504806519 4.727159976959229 1.013119339942932 4.727159976959229 Z" stroke="none"/>
      <path d="M 1.013119339942932 0 C 1.572649359703064 0 2.026239395141602 0.3663101196289062 2.026239395141602 0.8181700706481934 L 2.026239395141602 4.908989906311035 C 2.026239395141602 5.360859870910645 1.572649359703064 5.727159976959229 1.013119339942932 5.727159976959229 C 0.4535893201828003 5.727159976959229 -7.152557373046875e-07 5.360859870910645 -7.152557373046875e-07 4.908989906311035 L -7.152557373046875e-07 0.8181700706481934 C -7.152557373046875e-07 0.3663101196289062 0.4535893201828003 0 1.013119339942932 0 Z" stroke="none" fill="#fff"/>
    </g>
  </g>
</svg>
