<svg xmlns="http://www.w3.org/2000/svg" width="30.421" height="60.843" viewBox="0 0 30.421 60.843">
  <g id="icon_orange_75__battery" data-name="icon_orange_75%_battery" transform="translate(-7000.362 3003.846)">
    <path id="Path_23" data-name="Path 23" d="M33.375,8.084h-5.08V2H16.126V8.084h-5.08A4.064,4.064,0,0,0,7,12.13v8.122H23.64l1.612-3.042v3.042H37.421V12.13A4.064,4.064,0,0,0,33.375,8.084Z" transform="translate(6993.362 -3005.846)" fill="#fff"/>
    <path id="Path_24" data-name="Path 24" d="M25.253,21.69h6.084L19.169,44.506V27.774H13.084L23.64,8H7V46.544a4.064,4.064,0,0,0,4.046,4.046h22.3a4.07,4.07,0,0,0,4.076-4.046V8H25.253Z" transform="translate(6993.362 -2993.593)" fill="#ff7f00"/>
  </g>
</svg>
