<svg xmlns="http://www.w3.org/2000/svg" width="31.328" height="62.656" viewBox="0 0 31.328 62.656">
  <g id="icon_red_24__battery" data-name="icon_red_24%_battery" transform="translate(-7119.672 3006.656)">
    <path id="Path_29" data-name="Path 29" d="M19.531,26.4V17H7V28.5a4.185,4.185,0,0,0,4.167,4.167H34.13a4.192,4.192,0,0,0,4.2-4.167V17H24.544Z" transform="translate(7112.672 -2976.664)" fill="#e55b5b"/>
    <path id="Path_30" data-name="Path 30" d="M34.161,8.266H28.93V2H16.4V8.266H11.167A4.185,4.185,0,0,0,7,12.432v36.56H19.531V41.16H13.266L25.8,17.664v17.23h6.266l-7.519,14.1H38.328V12.432A4.185,4.185,0,0,0,34.161,8.266Z" transform="translate(7112.672 -3008.656)" fill="#fff"/>
  </g>
</svg>
