<svg xmlns="http://www.w3.org/2000/svg" width="31.196" height="62.392" viewBox="0 0 31.196 62.392">
  <g id="icon_orange_50__battery" data-name="icon_orange_50%_battery" transform="translate(-7066.397 3005.395)">
    <path id="Path_19" data-name="Path 19" d="M34.047,8.239h-5.21V2H16.359V8.239h-5.21A4.167,4.167,0,0,0,7,12.388V30.076H19.073L25.718,17.6V30.076H38.2V12.388A4.167,4.167,0,0,0,34.047,8.239Z" transform="translate(7059.397 -3007.395)" fill="#fff"/>
    <path id="Path_20" data-name="Path 20" d="M25.718,15.679h6.239l-12.478,23.4V21.919H13.239L19.073,11H7V41.166a4.167,4.167,0,0,0,4.149,4.149H34.016a4.174,4.174,0,0,0,4.18-4.149V11H25.718Z" transform="translate(7059.397 -2988.318)" fill="#ff7f00"/>
  </g>
</svg>
