<svg xmlns="http://www.w3.org/2000/svg" width="34.417" height="34.417" viewBox="0 0 34.417 34.417">
  <g id="icon_messages_faild_red_big" transform="translate(-1538.583 -287)">
    <path id="ic_speaker_notes_off_24px" d="M16.489,16.232l-.845-.845L11.8,11.539,9.386,9.13,3.723,3.466,1.987,1.73,0,3.717,3.144,6.861,3.129,33.441l6.258-6.258h14.08l8.964,8.964,1.987-1.987L27.44,27.183Zm-3.974,4.693H9.386V17.8h3.129ZM9.386,16.232V13.1l3.129,3.129Zm21.9-14.08H6.383l9.261,9.261v-3H28.159v3.129H15.769L17.334,13.1H28.159v3.129h-7.7L31.4,27.167a3.123,3.123,0,0,0,3.019-3.113V5.281A3.138,3.138,0,0,0,31.288,2.152Z" transform="translate(1538.583 285.27)" fill="#e55b5b"/>
  </g>
</svg>
