<svg xmlns="http://www.w3.org/2000/svg" width="58.157" height="56.231" viewBox="0 0 58.157 56.231">
  <g id="icon_login_account_user" transform="translate(-853 -357.884)">
    <rect id="Rectangle_83" data-name="Rectangle 83" width="58.157" height="56.231" rx="6" transform="translate(853 357.884)" fill="#e4e6e6"/>
    <g id="user-shape" transform="translate(873 372)">
      <g id="Group_130" data-name="Group 130" transform="translate(-3 1)">
        <path id="Path_422" data-name="Path 422" d="M116.652,14.045a6.766,6.766,0,0,0,4.965-2.058,6.766,6.766,0,0,0,2.057-4.965,6.767,6.767,0,0,0-2.057-4.965,7.021,7.021,0,0,0-9.931,0,6.766,6.766,0,0,0-2.058,4.965,6.765,6.765,0,0,0,2.058,4.965A6.767,6.767,0,0,0,116.652,14.045Z" transform="translate(-103.777)" fill="#252e4a"/>
        <path id="Path_423" data-name="Path 423" d="M43.953,209.578a18.724,18.724,0,0,0-.256-1.993,15.507,15.507,0,0,0-.485-1.984,9.41,9.41,0,0,0-.786-1.783,6.423,6.423,0,0,0-1.134-1.481,4.774,4.774,0,0,0-1.563-.978,5.5,5.5,0,0,0-2.04-.366,2.236,2.236,0,0,0-.768.393q-.6.393-1.362.878a8.651,8.651,0,0,1-1.975.877,7.775,7.775,0,0,1-4.883,0,8.649,8.649,0,0,1-1.975-.877q-.759-.485-1.362-.878a2.235,2.235,0,0,0-.768-.393,5.494,5.494,0,0,0-2.039.366,4.774,4.774,0,0,0-1.564.978,6.431,6.431,0,0,0-1.134,1.481,9.425,9.425,0,0,0-.786,1.783,15.508,15.508,0,0,0-.485,1.984,18.613,18.613,0,0,0-.256,1.993q-.064.924-.064,1.893a4.559,4.559,0,0,0,1.335,3.466,4.934,4.934,0,0,0,3.548,1.271H39.135a4.934,4.934,0,0,0,3.548-1.271,4.556,4.556,0,0,0,1.335-3.466Q44.018,210.5,43.953,209.578Z" transform="translate(-18.268 -188.117)" fill="#252e4a"/>
      </g>
    </g>
  </g>
</svg>
