<svg xmlns="http://www.w3.org/2000/svg" width="22" height="22" viewBox="0 0 22 22">
  <g id="icon_contacts_messages_faild_red_small" transform="translate(-827 -554)">
    <path id="ic_speaker_notes_off_24px" d="M10.54,11,10,10.46,7.54,8,6,6.46,2.38,2.84,1.27,1.73,0,3,2.01,5.01,2,22l4-4h9l5.73,5.73L22,22.46,17.54,18l-7-7ZM8,14H6V12H8ZM6,11V9l2,2ZM20,2H4.08L10,7.92V6h8V8H10.08l1,1H18v2H13.08l6.99,6.99A2,2,0,0,0,22,16V4A2.006,2.006,0,0,0,20,2Z" transform="translate(827 552.27)" fill="#e55b5b"/>
  </g>
</svg>
