<svg xmlns="http://www.w3.org/2000/svg" width="33.436" height="33.436" viewBox="0 0 33.436 33.436">
  <g id="icon_messages_send_green" transform="translate(-6178.564 3115)">
    <path id="ic_speaker_notes_24px" d="M32.092,2H5.344A3.339,3.339,0,0,0,2.017,5.344L2,35.436l6.687-6.687h23.4A3.353,3.353,0,0,0,35.436,25.4V5.344A3.353,3.353,0,0,0,32.092,2ZM12.031,22.061H8.687V18.718h3.344Zm0-5.015H8.687V13.7h3.344Zm0-5.015H8.687V8.687h3.344Zm11.7,10.031H15.374V18.718h8.359Zm5.015-5.015H15.374V13.7H28.748Zm0-5.015H15.374V8.687H28.748Z" transform="translate(6176.564 -3117)" fill="#25db04"/>
  </g>
</svg>
