<svg xmlns="http://www.w3.org/2000/svg" width="31.161" height="62.322" viewBox="0 0 31.161 62.322">
  <g id="icon_red_100__battery" data-name="icon_red_100%_battery" transform="translate(-6928.623 3008.324)">
    <path id="Path_23" data-name="Path 23" d="M34.016,8.232h-5.2V2H16.348V8.232h-5.2A4.163,4.163,0,0,0,7,12.377V20.7H24.045L25.7,17.58V20.7H38.161v-8.32A4.163,4.163,0,0,0,34.016,8.232Z" transform="translate(6921.623 -3010.324)" fill="#ff7f00"/>
    <path id="Path_24" data-name="Path 24" d="M25.7,22.022h6.232L19.464,45.393V28.254H13.232L24.045,8H7V47.481a4.163,4.163,0,0,0,4.144,4.144H33.985a4.169,4.169,0,0,0,4.176-4.144V8H25.7Z" transform="translate(6921.623 -2997.628)" fill="#ff7f00"/>
  </g>
</svg>
