<svg xmlns="http://www.w3.org/2000/svg" width="16.157" height="15.395" viewBox="0 0 16.157 15.395">
  <g id="icon_contacts_favorite_nr_orange" transform="translate(-872 -312.838)">
    <path id="star" d="M16.143,7.177a.29.29,0,0,0-.234-.2l-5.232-.76L8.338,1.479a.289.289,0,0,0-.518,0L5.48,6.22l-5.232.76a.289.289,0,0,0-.161.493l3.786,3.69-.894,5.211a.29.29,0,0,0,.115.283.287.287,0,0,0,.3.022l4.68-2.46,4.679,2.46a.289.289,0,0,0,.42-.3l-.894-5.211,3.786-3.69A.289.289,0,0,0,16.143,7.177Z" transform="translate(872 311.52)" fill="#f67b03"/>
  </g>
</svg>
