<svg xmlns="http://www.w3.org/2000/svg" width="58.157" height="56.231" viewBox="0 0 58.157 56.231">
  <g id="icon_login_account_password" transform="translate(-855 -447.884)">
    <g id="Group_245" data-name="Group 245">
      <g id="Group_244" data-name="Group 244">
        <rect id="Rectangle_138" data-name="Rectangle 138" width="58.157" height="56.231" rx="6" transform="translate(855 447.884)" fill="#e4e6e6"/>
      </g>
    </g>
    <g id="lock" transform="translate(873.593 462.746)">
      <path id="Path_424" data-name="Path 424" d="M84.965,9.47h-1.8v-2.1C83.168,3.3,79.406,0,74.782,0S66.4,3.3,66.4,7.366v2.1H64.6A.566.566,0,0,0,64,10V23.149a2.267,2.267,0,0,0,2.4,2.1H83.168a2.267,2.267,0,0,0,2.4-2.1V10A.566.566,0,0,0,84.965,9.47Zm-8.389,10.99a.487.487,0,0,1-.149.409.639.639,0,0,1-.446.175h-2.4a.639.639,0,0,1-.446-.175.487.487,0,0,1-.149-.409l.378-2.985a2.014,2.014,0,0,1-.98-1.692,2.416,2.416,0,0,1,4.792,0,2.014,2.014,0,0,1-.98,1.692Zm3-10.99H69.99v-2.1a4.832,4.832,0,0,1,9.584,0Z" transform="translate(-64)" fill="#252e4a"/>
    </g>
  </g>
</svg>
