<svg xmlns="http://www.w3.org/2000/svg" width="23.858" height="31.211" viewBox="0 0 23.858 31.211">
  <g id="icon_signal_conected_orange" transform="translate(-1566.444 -17.372)">
    <path id="ic_sim_card_24px" d="M27.843,5.121A3.051,3.051,0,0,0,24.876,2H12.947L4,11.363V30.09a3.063,3.063,0,0,0,2.982,3.121H24.891a3.051,3.051,0,0,0,2.967-3.121ZM11.456,28.53H8.473V25.409h2.982Zm11.929,0H20.4V25.409h2.982ZM11.456,22.288H8.473V16.045h2.982ZM17.42,28.53H14.438V22.288H17.42Zm0-9.363H14.438V16.045H17.42Zm5.964,3.121H20.4V16.045h2.982Z" transform="translate(1562.444 15.372)" fill="#ff7f00"/>
  </g>
</svg>
