<svg xmlns="http://www.w3.org/2000/svg" width="32.623" height="32.623" viewBox="0 0 32.623 32.623">
  <g id="Menu_button__templates_white" data-name="Menu_button _templates_white" transform="translate(-68.098 -414.292)">
    <path id="ic_library_books_24px" d="M5.262,8.525H2V31.361a3.272,3.272,0,0,0,3.262,3.262H28.1V31.361H5.262ZM31.361,2H11.787A3.272,3.272,0,0,0,8.525,5.262V24.836A3.272,3.272,0,0,0,11.787,28.1H31.361a3.272,3.272,0,0,0,3.262-3.262V5.262A3.272,3.272,0,0,0,31.361,2ZM29.73,16.681H13.418V13.418H29.73Zm-6.525,6.525H13.418V19.943h9.787ZM29.73,10.156H13.418V6.894H29.73Z" transform="translate(66.098 412.292)" fill="#fff"/>
  </g>
</svg>
