<svg xmlns="http://www.w3.org/2000/svg" width="37" height="25" viewBox="0 0 37 25">
  <g id="Menu_button_orange" transform="translate(-5383 1004)">
    <g id="menu" transform="translate(5383 -1004)">
      <g id="Group_5" data-name="Group 5">
        <g id="Group_4" data-name="Group 4">
          <path id="Path_329" data-name="Path 329" d="M35.505,78.439H1.495C.669,78.439,0,79.558,0,80.939s.669,2.5,1.495,2.5H35.505c.825,0,1.495-1.119,1.495-2.5S36.331,78.439,35.505,78.439Z" transform="translate(0 -78.439)" fill="#fff"/>
        </g>
      </g>
    </g>
    <g id="menu-2" data-name="menu" transform="translate(5383 -994)">
      <g id="Group_5-2" data-name="Group 5">
        <g id="Group_4-2" data-name="Group 4">
          <path id="Path_329-2" data-name="Path 329" d="M35.505,78.439H1.495C.669,78.439,0,79.558,0,80.939s.669,2.5,1.495,2.5H35.505c.825,0,1.495-1.119,1.495-2.5S36.331,78.439,35.505,78.439Z" transform="translate(0 -78.439)" fill="#fff"/>
        </g>
      </g>
    </g>
    <g id="menu-3" data-name="menu" transform="translate(5383 -984)">
      <g id="Group_5-3" data-name="Group 5">
        <g id="Group_4-3" data-name="Group 4">
          <path id="Path_329-3" data-name="Path 329" d="M35.505,78.439H1.495C.669,78.439,0,79.558,0,80.939s.669,2.5,1.495,2.5H35.505c.825,0,1.495-1.119,1.495-2.5S36.331,78.439,35.505,78.439Z" transform="translate(0 -78.439)" fill="#fff"/>
        </g>
      </g>
    </g>
  </g>
</svg>
