<svg xmlns="http://www.w3.org/2000/svg" width="24" height="22" viewBox="0 0 35.401 33.663">
  <g id="Menu_button_schedule_white" transform="translate(-68.467 -331.375)">
    <g id="Group_24" data-name="Group 24" transform="translate(68.467 331.375)">
      <path id="Path_339" data-name="Path 339" d="M12.866,16.783a.57.57,0,0,1-.586.558h-2.2a.57.57,0,0,1-.586-.558v-2.1a.57.57,0,0,1,.586-.558h2.2a.57.57,0,0,1,.586.558Zm4.6-2.088a.57.57,0,0,0-.586-.558h-2.2a.57.57,0,0,0-.586.558v2.1a.57.57,0,0,0,.586.558h2.2a.57.57,0,0,0,.586-.558Zm4.6,0a.57.57,0,0,0-.586-.558h-2.2a.57.57,0,0,0-.586.558v2.1a.57.57,0,0,0,.586.558h2.2a.57.57,0,0,0,.586-.558Zm-9.19,4.26a.57.57,0,0,0-.586-.558h-2.2a.57.57,0,0,0-.586.558v2.1a.57.57,0,0,0,.586.558h2.2a.57.57,0,0,0,.586-.558Zm4.6,0a.57.57,0,0,0-.586-.558h-2.2a.57.57,0,0,0-.586.558v2.1a.57.57,0,0,0,.586.558h2.2a.57.57,0,0,0,.586-.558Zm4.009-.558h-2.2a.57.57,0,0,0-.586.558v2.1a.57.57,0,0,0,.586.558h2.2a.57.57,0,0,0,.586-.558v-2.1A.57.57,0,0,0,21.471,18.4ZM7.678,22.656H5.485a.57.57,0,0,0-.586.558v2.1a.57.57,0,0,0,.586.558h2.2a.57.57,0,0,0,.586-.558v-2.1A.577.577,0,0,0,7.678,22.656Zm.593-3.7a.57.57,0,0,0-.586-.558h-2.2a.57.57,0,0,0-.586.558v2.1a.57.57,0,0,0,.586.558h2.2a.57.57,0,0,0,.586-.558Zm8.6,3.7h-2.2a.57.57,0,0,0-.586.558v2.1a.57.57,0,0,0,.586.558h2.2a.57.57,0,0,0,.586-.558v-2.1A.57.57,0,0,0,16.875,22.656Zm-4.6,0h-2.2a.57.57,0,0,0-.586.558v2.1a.57.57,0,0,0,.586.558h2.2a.57.57,0,0,0,.586-.558v-2.1A.57.57,0,0,0,12.28,22.656Zm13.785-5.307a.57.57,0,0,0,.586-.558v-2.1a.57.57,0,0,0-.586-.558h-2.2a.57.57,0,0,0-.586.558v2.1a.57.57,0,0,0,.586.558ZM3.452,30.416H20.146a8.2,8.2,0,0,1-.427-2.536H3.452a.765.765,0,0,1-.782-.744V12.158H28.844v6.968a9.4,9.4,0,0,1,2.663.393V6.913a3.377,3.377,0,0,0-3.452-3.288H24.191V1.6A1.231,1.231,0,0,0,22.932.4H20.971a1.231,1.231,0,0,0-1.259,1.2V3.633H11.8V1.6A1.231,1.231,0,0,0,10.536.4H8.575A1.231,1.231,0,0,0,7.316,1.6V3.633H3.452A3.377,3.377,0,0,0,0,6.92V27.136A3.376,3.376,0,0,0,3.452,30.416ZM35.4,27.784a6.443,6.443,0,0,1-6.592,6.279,6.443,6.443,0,0,1-6.592-6.279A6.443,6.443,0,0,1,28.808,21.5,6.443,6.443,0,0,1,35.4,27.784Zm-3.264-1.627a.712.712,0,0,0-.232-.531.819.819,0,0,0-1.122,0l-2.866,2.729-1.1-1.048a.819.819,0,0,0-1.122,0,.723.723,0,0,0-.232.531.712.712,0,0,0,.232.531l1.657,1.578a.819.819,0,0,0,1.122,0l3.423-3.26A.694.694,0,0,0,32.137,26.157Z" transform="translate(0 -0.4)" fill="#fff"/>
    </g>
  </g>
</svg>
