<svg xmlns="http://www.w3.org/2000/svg" width="24" height="24" viewBox="0 0 32.623 39.148">
  <g id="Menu_button_contacts_white" transform="translate(-68.098 -256.035)">
    <path id="ic_contacts_24px" d="M31.361,0H5.262V3.262h26.1ZM5.262,39.148h26.1V35.886H5.262Zm26.1-32.623H5.262A3.272,3.272,0,0,0,2,9.787V29.361a3.272,3.272,0,0,0,3.262,3.262h26.1a3.272,3.272,0,0,0,3.262-3.262V9.787A3.272,3.272,0,0,0,31.361,6.525ZM18.312,11.01a3.67,3.67,0,1,1-3.67,3.67A3.676,3.676,0,0,1,18.312,11.01ZM26.467,27.73H10.156V25.283c0-2.724,5.432-4.078,8.156-4.078s8.156,1.354,8.156,4.078Z" transform="translate(66.098 256.035)" fill="#fff"/>
  </g>
</svg>
